<svg width="28" height="28" viewBox="0 0 28 28" fill="none" xmlns="http://www.w3.org/2000/svg">
<path d="M18.6667 13.9998C18.6667 15.2832 19.7167 16.3332 21 16.3332C22.2834 16.3332 23.3334 15.2832 23.3334 13.9998C23.3334 12.7165 22.2834 11.6665 21 11.6665C19.7167 11.6665 18.6667 12.7165 18.6667 13.9998ZM16.3334 13.9998C16.3334 12.7165 15.2834 11.6665 14 11.6665C12.7167 11.6665 11.6667 12.7165 11.6667 13.9998C11.6667 15.2832 12.7167 16.3332 14 16.3332C15.2834 16.3332 16.3334 15.2832 16.3334 13.9998ZM9.33337 13.9998C9.33337 12.7165 8.28337 11.6665 7.00004 11.6665C5.71671 11.6665 4.66671 12.7165 4.66671 13.9998C4.66671 15.2832 5.71671 16.3332 7.00004 16.3332C8.28337 16.3332 9.33337 15.2832 9.33337 13.9998Z" fill="black"/>
</svg>
