<svg width="37" height="32" viewBox="0 0 37 32" fill="none" xmlns="http://www.w3.org/2000/svg">
<g clip-path="url(#clip0_1_899)">
<path d="M36.5 28C36.5 30.2091 34.7091 32 32.5 32L4.5 32C2.29086 32 0.5 30.2091 0.5 28L0.500002 4C0.500003 1.79086 2.29086 -3.94433e-06 4.5 -3.7512e-06L32.5 -1.30337e-06C34.7091 -1.11024e-06 36.5 1.79086 36.5 4L36.5 28Z" fill="#BFC0C0"/>
<path d="M24.5 16.0002C24.5 17.4668 25.85 18.6668 27.5 18.6668C29.15 18.6668 30.5 17.4668 30.5 16.0002C30.5 14.5335 29.15 13.3335 27.5 13.3335C25.85 13.3335 24.5 14.5335 24.5 16.0002ZM21.5 16.0002C21.5 14.5335 20.15 13.3335 18.5 13.3335C16.85 13.3335 15.5 14.5335 15.5 16.0002C15.5 17.4668 16.85 18.6668 18.5 18.6668C20.15 18.6668 21.5 17.4668 21.5 16.0002ZM12.5 16.0002C12.5 14.5335 11.15 13.3335 9.5 13.3335C7.85 13.3335 6.5 14.5335 6.5 16.0002C6.5 17.4668 7.85 18.6668 9.5 18.6668C11.15 18.6668 12.5 17.4668 12.5 16.0002Z" fill="black"/>
</g>
<defs>
<clipPath id="clip0_1_899">
<rect width="32" height="36" fill="white" transform="translate(36.5) rotate(90)"/>
</clipPath>
</defs>
</svg>
