<svg width="23" height="22" viewBox="0 0 23 22" fill="none" xmlns="http://www.w3.org/2000/svg">
<g clip-path="url(#clip0_1_816)">
<path d="M14.9972 12.8333H14.273L14.0163 12.5858C14.9147 11.5408 15.4555 10.1842 15.4555 8.70833C15.4555 5.4175 12.788 2.75 9.49715 2.75C6.20632 2.75 3.53882 5.4175 3.53882 8.70833C3.53882 11.9992 6.20632 14.6667 9.49715 14.6667C10.973 14.6667 12.3297 14.1258 13.3747 13.2275L13.6222 13.4842V14.2083L18.2055 18.7825L19.5713 17.4167L14.9972 12.8333ZM9.49715 12.8333C7.21465 12.8333 5.37215 10.9908 5.37215 8.70833C5.37215 6.42583 7.21465 4.58333 9.49715 4.58333C11.7797 4.58333 13.6222 6.42583 13.6222 8.70833C13.6222 10.9908 11.7797 12.8333 9.49715 12.8333Z" fill="#7A7A7A"/>
</g>
<defs>
<clipPath id="clip0_1_816">
<rect width="22" height="22" fill="white" transform="translate(0.788818)"/>
</clipPath>
</defs>
</svg>
