<svg width="163" height="24" viewBox="0 0 163 24" fill="none" xmlns="http://www.w3.org/2000/svg">
<g clip-path="url(#clip0_1_786)">
<path d="M97.0126 15.5011C98.9338 15.5011 100.491 13.9424 100.491 12.0196C100.491 10.0968 98.9338 8.53809 97.0126 8.53809C95.0913 8.53809 93.5338 10.0968 93.5338 12.0196C93.5338 13.9424 95.0913 15.5011 97.0126 15.5011Z" fill="#CDDC36"/>
<path d="M85.0056 11.1496L90.4912 5.65967H86.7787C85.7586 7.32195 85.1506 9.20431 85.0056 11.1496Z" fill="#DAE233"/>
<path d="M96.1762 0.00317383C94.1623 0.130489 92.2153 0.776358 90.5242 1.87817V5.66118L96.1762 0.00317383Z" fill="#DAE233"/>
<path d="M108.987 11.1496L103.501 5.65967H107.214C108.248 7.31526 108.857 9.20128 108.987 11.1496Z" fill="#DAE233"/>
<path d="M97.849 0.00317383C99.8629 0.130556 101.81 0.77642 103.501 1.87817V5.66118L97.849 0.00317383Z" fill="#DAE233"/>
<path d="M90.5242 12.7891H85.0386C85.1678 14.7375 85.777 16.6236 86.8116 18.2791H90.5242V12.7891Z" fill="#DAE233"/>
<path d="M103.535 12.7891H109.021C108.892 14.7374 108.283 16.6235 107.248 18.2791H103.535V12.7891Z" fill="#DAE233"/>
<path d="M96.1763 5.59357L90.6307 11.1436H85.0057L96.1763 -0.00292969V5.59357Z" fill="#46B746"/>
<path d="M97.8489 23.9686C99.8737 23.8964 101.84 23.2714 103.535 22.1611V12.7891L97.8489 18.4801V23.9686Z" fill="#46B746"/>
<path d="M96.1432 18.447L90.5242 12.8235V22.1955C92.2206 23.2763 94.1678 23.8991 96.1762 24.003V18.453L96.1432 18.447Z" fill="#46B746"/>
<path d="M97.8489 5.59368L103.395 11.1437H109.014L97.8489 0.00317383V5.59368Z" fill="#46B746"/>
<path d="M17.9066 22.6246C17.723 22.6412 17.5394 22.5936 17.3869 22.49C17.2344 22.3863 17.1225 22.233 17.0703 22.0561L14.5223 15.1276H4.39927L1.92472 22.0561C1.86473 22.2281 1.75103 22.3763 1.60042 22.4786C1.44981 22.581 1.27029 22.6322 1.08838 22.6246C0.942155 22.6234 0.798499 22.586 0.670279 22.5156C0.54206 22.4452 0.433279 22.3441 0.353677 22.2214C0.274075 22.0986 0.226137 21.958 0.214155 21.8121C0.202173 21.6663 0.226522 21.5197 0.28502 21.3856L6.84084 3.27609C6.97684 2.67729 7.31275 2.14277 7.79313 1.76073C8.27351 1.37868 8.86966 1.17193 9.48325 1.17459C10.0958 1.17585 10.6906 1.38029 11.1747 1.75592C11.6588 2.13156 12.0048 2.65719 12.1586 3.25059L18.7534 21.3931C18.7882 21.4899 18.8109 21.5907 18.8209 21.6931C18.8157 21.9357 18.7182 22.1672 18.5483 22.3403C18.3784 22.5134 18.1489 22.6151 17.9066 22.6246ZM5.06324 13.3531H13.8598L10.381 3.61208C10.3412 3.40047 10.2303 3.20884 10.0668 3.0689C9.90321 2.92896 9.69682 2.84911 9.48175 2.84258C9.08207 2.84258 8.7823 3.1106 8.58246 3.6466L5.06324 13.3531Z" fill="#27A365"/>
<path d="M24.7337 3.21609H18.1749C18.0564 3.22306 17.9378 3.20574 17.8263 3.16517C17.7148 3.12459 17.6127 3.06163 17.5264 2.98016C17.44 2.89869 17.3713 2.80042 17.3242 2.69138C17.2772 2.58235 17.253 2.46484 17.253 2.34609C17.253 2.22734 17.2772 2.10986 17.3242 2.00082C17.3713 1.89179 17.44 1.79351 17.5264 1.71204C17.6127 1.63057 17.7148 1.56761 17.8263 1.52704C17.9378 1.48646 18.0564 1.46915 18.1749 1.47611H32.9247C33.1553 1.47611 33.3764 1.56777 33.5394 1.73092C33.7024 1.89408 33.794 2.11535 33.794 2.34609C33.794 2.57683 33.7024 2.79812 33.5394 2.96128C33.3764 3.12444 33.1553 3.21609 32.9247 3.21609H26.4738V21.8266C26.4738 21.9409 26.4513 22.054 26.4076 22.1595C26.364 22.2651 26.2999 22.361 26.2192 22.4418C26.1385 22.5226 26.0426 22.5867 25.9372 22.6304C25.8317 22.6741 25.7187 22.6966 25.6045 22.6966C25.4903 22.6966 25.3773 22.6741 25.2718 22.6304C25.1664 22.5867 25.0705 22.5226 24.9898 22.4418C24.9091 22.361 24.845 22.2651 24.8014 22.1595C24.7577 22.054 24.7352 21.9409 24.7352 21.8266L24.7337 3.21609Z" fill="#27A365"/>
<path d="M51.8233 15.501C51.8276 16.4756 51.6341 17.4409 51.2546 18.3384C50.8751 19.2359 50.3175 20.047 49.6156 20.7225C48.8618 21.4693 47.9613 22.0513 46.9711 22.4316C45.9809 22.8119 44.9225 22.9823 43.8631 22.932C42.7523 22.9551 41.648 22.7569 40.6144 22.349C39.5808 21.9411 38.6385 21.3316 37.8424 20.556C36.2151 18.9593 35.2477 16.8083 35.1325 14.5305C34.9987 12.8933 34.9987 11.2478 35.1325 9.61052C35.2484 7.35253 36.217 5.2229 37.8424 3.65252C38.6339 2.86831 39.5746 2.25092 40.6087 1.83689C41.6429 1.42285 42.7495 1.22057 43.8631 1.242C45.4686 1.19799 47.0499 1.64126 48.3989 2.51351C49.748 3.38576 50.8017 4.64617 51.4216 6.12902C51.4731 6.26606 51.4911 6.41345 51.474 6.55886C51.4569 6.70427 51.4053 6.84346 51.3234 6.96478C51.2415 7.08611 51.1317 7.18604 51.0033 7.2562C50.8749 7.32635 50.7315 7.36468 50.5853 7.368C50.4025 7.38016 50.2209 7.33082 50.0694 7.22781C49.9178 7.1248 49.805 6.97403 49.7489 6.79951C49.2479 5.65958 48.4221 4.69278 47.375 4.01994C46.3279 3.3471 45.1058 2.99806 43.8616 3.0165C42.996 3.00345 42.1364 3.16248 41.3327 3.48433C40.5289 3.80619 39.797 4.28448 39.1793 4.8915C37.8758 6.11647 37.0865 7.7917 36.9715 9.57752C36.8043 11.2468 36.8043 12.9287 36.9715 14.598C37.0887 16.3857 37.8629 18.0666 39.1448 19.317C39.769 19.9244 40.5068 20.4027 41.3159 20.7244C42.125 21.0462 42.9896 21.2051 43.8601 21.192C45.4777 21.2627 47.0636 20.7279 48.3086 19.692C48.8765 19.2069 49.3278 18.5999 49.6288 17.9161C49.9298 17.2323 50.0729 16.4893 50.0472 15.7425V13.392H45.0307C44.8001 13.392 44.579 13.3004 44.416 13.1372C44.253 12.974 44.1614 12.7528 44.1614 12.522C44.1614 12.2913 44.253 12.07 44.416 11.9068C44.579 11.7437 44.8001 11.652 45.0307 11.652H50.1476C50.3667 11.6309 50.5878 11.6575 50.7957 11.7298C51.0037 11.8022 51.1935 11.9186 51.3524 12.0711C51.5112 12.2237 51.6352 12.4087 51.716 12.6136C51.7967 12.8186 51.8323 13.0385 51.8203 13.2585L51.8233 15.501Z" fill="#27A365"/>
<path d="M57.3779 21.8941C57.3867 22.0298 57.3671 22.1658 57.3203 22.2935C57.2735 22.4211 57.2005 22.5375 57.1061 22.6353C57.0117 22.733 56.8979 22.81 56.772 22.8611C56.6461 22.9122 56.5109 22.9364 56.3751 22.9321C56.2409 22.9308 56.1083 22.9028 55.985 22.8497C55.8617 22.7966 55.7502 22.7195 55.6569 22.623C55.5636 22.5264 55.4904 22.4123 55.4416 22.2871C55.3928 22.162 55.3693 22.0284 55.3725 21.8941V20.2546C55.272 18.9151 57.4468 18.9151 57.3794 20.2546L57.3779 21.8941Z" fill="#27A365"/>
<path d="M58.2817 2.44664C58.238 2.3126 58.2276 2.16996 58.2512 2.03099C58.2749 1.89201 58.332 1.76086 58.4175 1.64885C58.503 1.53683 58.6145 1.44729 58.7422 1.38794C58.87 1.32859 59.0103 1.30122 59.151 1.30816C59.2524 1.29765 59.3548 1.30765 59.4523 1.33759C59.5497 1.36753 59.6402 1.41679 59.7182 1.48243C59.7962 1.54806 59.8603 1.62874 59.9065 1.71966C59.9527 1.81058 59.9802 1.90988 59.9873 2.01165L64.235 21.0917C64.235 21.3257 64.4688 21.2597 64.5347 21.0917L69.3504 2.88314C69.417 2.44963 69.642 2.05626 69.9817 1.77917C70.3214 1.50208 70.7518 1.36096 71.1895 1.38314C71.6257 1.36725 72.0528 1.51067 72.3912 1.78666C72.7295 2.06264 72.9561 2.45235 73.0285 2.88314L77.7438 21.1261C77.8112 21.2941 78.0436 21.3601 78.0436 21.1261L82.3586 2.07615C82.377 1.86066 82.4775 1.66052 82.6394 1.51724C82.8012 1.37396 83.012 1.29854 83.228 1.30665C83.3699 1.29186 83.5133 1.31449 83.6438 1.37229C83.7743 1.43009 83.8875 1.52104 83.972 1.63612C84.0565 1.75121 84.1095 1.88644 84.1257 2.02836C84.1419 2.17027 84.1207 2.31395 84.0643 2.44515L79.7177 21.4577C79.6243 21.8671 79.3948 22.2327 79.0667 22.4946C78.7385 22.7564 78.3313 22.899 77.9116 22.899C77.492 22.899 77.0848 22.7564 76.7566 22.4946C76.4285 22.2327 76.199 21.8671 76.1056 21.4577L71.2899 3.21465C71.2899 3.17487 71.2741 3.13672 71.246 3.10859C71.2179 3.08046 71.1798 3.06464 71.14 3.06464C71.1003 3.06464 71.0621 3.08046 71.034 3.10859C71.0059 3.13672 70.9901 3.17487 70.9901 3.21465L66.107 21.4577C66.0136 21.8671 65.784 22.2327 65.4559 22.4946C65.1278 22.7564 64.7206 22.899 64.3009 22.899C63.8812 22.899 63.474 22.7564 63.1459 22.4946C62.8178 22.2327 62.5882 21.8671 62.4948 21.4577L58.2817 2.44664Z" fill="#5C5D5D"/>
<path d="M126.111 22.764C125.977 22.7582 125.846 22.7256 125.725 22.6681C125.604 22.6106 125.496 22.5295 125.408 22.4294L119.454 14.9654C119.282 14.6662 119.033 14.4184 118.734 14.2478C118.434 14.0772 118.094 13.9899 117.749 13.9949H113.534V21.8609C113.525 22.0916 113.431 22.3108 113.271 22.4767C113.11 22.6427 112.895 22.7438 112.665 22.7609C112.433 22.7492 112.214 22.6497 112.053 22.4826C111.891 22.3155 111.799 22.0933 111.795 21.8609V3.21594C111.785 2.98464 111.824 2.75381 111.907 2.53808C111.991 2.32235 112.119 2.12644 112.283 1.96281C112.447 1.79918 112.642 1.67139 112.858 1.58758C113.074 1.50377 113.304 1.46575 113.535 1.47595H119.657C121.408 1.38956 123.124 1.99011 124.439 3.14995C125.063 3.74621 125.551 4.47057 125.868 5.27326C126.185 6.07596 126.326 6.93794 126.278 7.79994C126.278 11.3144 124.204 13.2899 120.733 13.7579L126.82 21.3224C126.94 21.4867 126.999 21.6877 126.987 21.891C126.991 22.0071 126.971 22.1227 126.929 22.2308C126.886 22.3388 126.821 22.4369 126.739 22.5188C126.657 22.6007 126.559 22.6648 126.45 22.707C126.342 22.7492 126.227 22.7686 126.111 22.764ZM113.568 12.2204H119.188C122.767 12.2204 124.538 10.7474 124.538 7.73544C124.538 4.95744 122.833 3.21594 119.622 3.21594H113.568V12.2204Z" fill="#5C5D5D"/>
<path d="M129.891 2.24547C129.891 2.01473 129.982 1.79346 130.145 1.6303C130.308 1.46715 130.529 1.37549 130.76 1.37549C130.99 1.37549 131.212 1.46715 131.375 1.6303C131.538 1.79346 131.629 2.01473 131.629 2.24547V20.823H142.199C142.434 20.8343 142.656 20.9327 142.822 21.0991C142.988 21.2655 143.087 21.4879 143.098 21.723C143.086 21.9551 142.987 22.1741 142.82 22.3356C142.653 22.4971 142.431 22.5891 142.199 22.593H131.664C131.428 22.6029 131.193 22.5639 130.974 22.4782C130.754 22.3926 130.554 22.2622 130.388 22.0954C130.221 21.9286 130.091 21.729 130.005 21.5092C129.92 21.2894 129.881 21.0542 129.891 20.8185V2.24547Z" fill="#5C5D5D"/>
<path d="M148.253 22.6291C148.027 22.6417 147.801 22.6059 147.59 22.5241C147.379 22.4423 147.188 22.3164 147.03 22.1548C146.872 21.9932 146.75 21.7996 146.672 21.5871C146.594 21.3745 146.563 21.1478 146.58 20.9221V3.14857C146.563 2.92288 146.594 2.69616 146.672 2.48357C146.75 2.27098 146.872 2.07742 147.03 1.91583C147.188 1.75424 147.379 1.62834 147.59 1.54655C147.801 1.46477 148.027 1.42897 148.253 1.44157H153.475C154.701 1.36008 155.931 1.53854 157.083 1.96529C158.236 2.39204 159.286 3.05747 160.164 3.91807C161.812 5.67854 162.732 7.99897 162.739 10.4116C162.806 11.515 162.806 12.6216 162.739 13.7251C162.702 16.1307 161.771 18.4364 160.126 20.1916C159.245 21.0353 158.198 21.6879 157.053 22.1083C155.908 22.5288 154.688 22.7081 153.47 22.6351H148.253V22.6291ZM160.993 10.3441C160.726 5.85906 158.283 3.21458 153.434 3.21458H148.35V20.8216H153.434C158.284 20.8216 160.759 18.1441 160.993 13.6921C161.061 12.5776 161.062 11.4601 160.996 10.3456L160.993 10.3441Z" fill="#5C5D5D"/>
<path d="M90.5182 22.2032V12.8237L96.1298 18.4532H96.1628V24.0032C94.1575 23.9013 92.2128 23.2811 90.5182 22.2032ZM97.8324 18.4877L103.51 12.7967V22.1687C101.818 23.2787 99.8544 23.9038 97.8324 23.9762V18.4877ZM103.51 18.2867V12.7892H108.988C108.859 14.7372 108.251 16.623 107.218 18.2792L103.51 18.2867ZM86.8102 18.2867C85.7761 16.6283 85.168 14.7397 85.0401 12.7892H90.5182V18.2792L86.8102 18.2867ZM93.5249 12.0197C93.526 11.3325 93.7307 10.6612 94.113 10.0904C94.4953 9.51967 95.0381 9.07514 95.6728 8.81301C96.3075 8.55088 97.0055 8.48291 97.6788 8.61769C98.352 8.75247 98.9703 9.08395 99.4553 9.57024C99.9404 10.0565 100.271 10.6758 100.404 11.3498C100.538 12.0239 100.468 12.7224 100.205 13.3571C99.9424 13.9918 99.4973 14.5342 98.9263 14.9159C98.3554 15.2975 97.6842 15.5012 96.9976 15.5012C96.5412 15.5008 96.0893 15.4104 95.6677 15.2352C95.2462 15.0601 94.8632 14.8035 94.5408 14.4802C94.2183 14.1569 93.9626 13.7732 93.7883 13.3511C93.614 12.9289 93.5245 12.4765 93.5249 12.0197ZM103.378 11.1497L97.8324 5.59967V0.00317383C99.8441 0.13035 101.789 0.776283 103.477 1.87817V5.64317L103.493 5.65967H107.19C108.216 7.3055 108.823 9.17832 108.957 11.1137L108.988 11.1497H103.378ZM85.0071 11.1497L85.0475 11.1032C85.1983 9.17437 85.8039 7.30884 86.8147 5.65967H90.5017L90.5182 5.64317V1.87817C92.2066 0.776283 94.1511 0.13035 96.1628 0.00317383V5.59367L90.6171 11.1437L85.0071 11.1497Z" fill="url(#paint0_linear_1_786)"/>
</g>
<defs>
<linearGradient id="paint0_linear_1_786" x1="85.0071" y1="10.4672" x2="97.0082" y2="23.9938" gradientUnits="userSpaceOnUse">
<stop stop-color="#00A854"/>
<stop offset="1" stop-color="#004D25"/>
</linearGradient>
<clipPath id="clip0_1_786">
<rect width="162.578" height="24.006" fill="white" transform="translate(0.211182 -0.00292969)"/>
</clipPath>
</defs>
</svg>
